<svg width="111" height="110" viewBox="0 0 111 110" fill="none" xmlns="http://www.w3.org/2000/svg">
<path d="M85.6501 99.02C93.7101 83.05 88.9901 68.36 83.4301 52.88C78.1401 38.17 70.1501 24.92 58.3201 14.41C52.1701 8.95004 45.4401 4.33003 35.7201 4.96003C31.8701 6.51003 28.8401 8.06004 25.8001 9.61004C24.4301 14.15 22.6101 18.6 21.8001 23.24C20.0101 33.42 22.1201 43.39 25.3001 52.97C30.5301 68.73 38.4201 83.01 50.6401 94.59C57.0401 100.65 63.8301 105.56 73.6801 105.98C77.4001 104.46 81.8301 102.16 85.0901 100.25L85.66 99.01L85.6501 99.02Z" fill="#FFCE34"/>
<path d="M85.0788 100.26C92.7888 84.1499 88.9887 68.3599 83.4287 52.8799C78.1387 38.1699 70.1488 24.9199 58.3188 14.4099C52.1688 8.94991 45.0588 4.34991 35.7188 4.95991C48.4987 -1.49009 62.4387 -1.07009 75.6087 4.30991C103.389 15.6499 116.489 43.7499 107.319 72.4199C103.549 84.1899 96.4488 93.9799 85.0888 100.26H85.0788Z" fill="#FB605E"/>
<path d="M25.7892 9.62012C24.7592 14.0001 22.5992 18.6101 21.7892 23.2501C19.9992 33.4301 22.1092 43.4001 25.2892 52.9801C30.5192 68.7401 38.4092 83.0201 50.6292 94.6001C57.0292 100.66 64.0892 105.36 73.6692 105.99C55.9792 114.35 31.3592 108.88 16.0792 93.1301C-7.68084 68.6301 -3.02082 28.5901 25.7892 9.62012Z" fill="#1DCC55"/>
</svg>
