<svg width="178" height="161" viewBox="0 0 178 161" fill="none" xmlns="http://www.w3.org/2000/svg">
<path d="M110.281 152.41C91.5009 156.99 72.4809 159.91 53.1309 160.08C50.6809 160.1 47.4309 158.86 45.8909 157.05C29.0009 137.32 14.9509 115.78 6.56086 91.0202C0.420856 72.8702 -1.68913 54.4102 4.67087 35.7302C11.7209 15.0202 31.4109 0.460217 52.4809 0.450217C74.8609 0.430217 94.0509 14.2402 101.311 35.5702C101.731 36.8002 102.261 37.9902 102.571 38.7802C109.401 37.2102 115.891 35.0402 122.541 34.3102C147.521 31.5602 170.821 48.7202 175.941 71.8702C181.201 95.6502 172.081 114.55 154.421 129.94C150.191 133.63 145.191 136.44 140.031 139.98C139.041 140.64 138.571 140.98 137.821 141.37C137.391 141.72 137.231 142.01 137.101 142.31C137.131 142.31 137.091 142.27 136.711 142.23C127.651 145.6 118.971 149 110.291 152.41" fill="#03C3FF"/>
<path d="M54.9106 36.4804C51.7006 37.4404 46.2106 39.5404 43.2806 41.1804C36.5406 44.9604 32.9406 47.3004 30.3406 49.0004C29.4906 49.5604 27.9806 50.0104 27.2506 49.6204C26.6006 49.2704 26.2306 47.6204 26.4006 46.6604C28.0906 36.7004 33.7106 29.4104 42.9706 25.8504C52.4206 22.2204 63.6706 23.5304 71.8506 30.4804C72.2206 30.8004 72.5506 31.1704 72.8306 31.5404C73.3106 32.1704 73.0206 33.1804 72.2406 33.3004C64.5306 34.5204 61.5006 34.5204 54.9106 36.4804Z" fill="white"/>
</svg>
