<svg width="78" height="79" viewBox="0 0 78 79" fill="none" xmlns="http://www.w3.org/2000/svg">
<path d="M38.9402 78.9096C60.3578 78.9096 77.7202 61.5472 77.7202 40.1296C77.7202 18.712 60.3578 1.34961 38.9402 1.34961C17.5226 1.34961 0.160156 18.712 0.160156 40.1296C0.160156 61.5472 17.5226 78.9096 38.9402 78.9096Z" fill="#03C3FF"/>
<path d="M0.189453 43.47C3.75945 43.73 7.32945 44.27 10.8295 45.12C20.6495 47.5 30.3194 44.72 39.5594 40.73C38.4794 54.48 30.4094 65.37 19.0594 73.43C6.97945 67.53 1.51945 56.92 0.189453 43.47Z" fill="#0B88EC"/>
<path d="M39.56 40.7299C36.99 38.7399 34.22 35.5899 32.11 32.8099C26.29 25.1199 21.62 16.0099 21.25 5.60988C32.46 -0.870123 44.7 -0.350138 56.35 5.46986C48.08 12.2699 42.97 21.2999 40.74 31.5099C40.19 34.0499 39.88 37.6999 39.55 40.7299H39.56Z" fill="#0B88EC"/>
<path d="M62.1505 71.2C59.1805 58.37 52.6705 47.5 39.5605 40.74C52.3105 35.12 65.2106 34.91 77.7206 38.85C78.8006 52.26 72.7305 62.94 62.1505 71.21V71.2Z" fill="#0B88EC"/>
</svg>
