<svg width="180" height="154" viewBox="0 0 180 154" fill="none" xmlns="http://www.w3.org/2000/svg">
<path d="M90.9208 112.61C83.6508 108.03 76.1408 102.74 68.8808 97.6098C69.8708 96.1598 71.0508 95.5798 72.0308 94.6698C87.7708 80.0398 83.2508 54.2598 63.3908 46.1898C47.1708 39.5998 27.1608 48.4198 23.2608 69.3298C16.8208 65.3698 10.0408 61.8498 4.06081 57.2898C0.00080514 54.1998 -0.289197 49.2598 2.1208 44.5498C12.2608 24.7798 30.5308 11.5198 55.8608 18.6598C57.4708 19.1098 60.0208 18.1598 61.4408 17.0098C80.3908 1.54983 101.461 -2.94021 125.011 3.96979C147.461 10.5598 166.391 33.7798 168.811 57.3098C169.731 66.2498 169.001 74.8298 166.841 83.4698C166.431 85.1298 166.981 87.8098 168.141 88.9398C179.151 99.6898 182.001 112.7 178.151 127.02C176.331 133.79 173.051 140.35 169.451 146.42C164.941 154.01 158.151 154.97 150.691 150.18C145.951 147.14 140.871 143.99 135.971 140.56C136.501 139.66 137.531 139.37 138.161 138.83C147.771 130.69 151.611 120.33 148.411 108.18C145.431 96.8498 137.681 89.3898 126.081 87.2698C113.831 85.0298 103.281 88.7098 96.3208 99.5598C93.8808 103.37 92.8708 107.96 91.0808 112.19M127.101 26.0998C113.881 19.0098 100.741 18.8798 87.7908 26.7498C82.0608 30.2398 81.8808 34.0199 87.4008 37.8399C92.7108 41.5099 98.2908 44.7998 103.761 48.2298C114.701 55.0998 125.621 62.0198 136.621 68.7998C141.851 72.0198 146.211 69.6798 146.551 63.4398C146.751 59.8098 146.821 56.0598 146.151 52.5198C143.991 41.1098 137.301 32.6998 127.101 26.1098V26.0998Z" fill="#03C3FF"/>
<path d="M23.2012 69.7398C27.1612 48.4198 47.1612 39.5999 63.3912 46.1899C83.2512 54.2599 87.7812 80.0398 72.0312 94.6698C71.0612 95.5698 70.0612 96.4498 68.8812 97.6098C61.4412 101.64 53.9012 103.66 45.6912 101.75C31.3712 98.4199 22.6112 86.1498 23.1912 69.7398M53.9112 84.1499C59.8712 82.7299 63.3112 79.0798 63.6812 73.7898C64.0012 69.3498 61.1112 64.8099 56.9112 63.1299C51.4412 60.9399 47.1112 62.0099 43.6012 66.5299C40.7512 70.1999 40.8112 74.3499 42.4712 78.3299C44.3712 82.8999 48.4112 84.2599 53.9112 84.1399V84.1499Z" fill="#FFCC31"/>
<path d="M90.9207 112.61C92.6407 107.95 93.8707 103.37 96.3107 99.5597C103.271 88.6997 113.821 85.0197 126.071 87.2697C137.671 89.3897 145.421 96.8497 148.401 108.18C151.601 120.32 147.761 130.68 138.151 138.83C137.521 139.37 136.811 139.81 135.961 140.56C119.801 148.01 107.101 145.72 97.3707 133.86C92.4007 127.8 90.7607 120.7 90.9207 112.61ZM109.621 119.36C110.431 120.59 111.091 121.96 112.071 123.02C116.221 127.52 121.771 128.3 126.361 125.15C131.171 121.85 132.901 115.69 130.431 110.66C128.141 106 121.551 103.64 116.201 105.29C112.141 106.54 107.261 113.38 109.631 119.36H109.621Z" fill="#FFCC31"/>
<path d="M127.451 26.23C137.311 32.69 144.001 41.1 146.161 52.51C146.831 56.05 146.761 59.8 146.561 63.43C146.221 69.67 141.861 72.02 136.631 68.79C125.631 62.01 114.721 55.09 103.771 48.22C98.301 44.78 92.721 41.5 87.411 37.83C81.891 34.01 82.061 30.23 87.801 26.74C100.741 18.87 113.881 19 127.451 26.22V26.23Z" fill="white"/>
<path d="M53.4915 84.1597C48.4115 84.2697 44.3715 82.9098 42.4615 78.3398C40.8015 74.3498 40.7515 70.1997 43.5915 66.5397C47.1015 62.0197 51.4315 60.9498 56.9015 63.1398C61.1015 64.8198 63.9915 69.3597 63.6715 73.7997C63.2915 79.0897 59.8615 82.7397 53.4815 84.1597H53.4915Z" fill="#FB605E"/>
<path d="M109.541 118.99C107.261 113.39 112.141 106.55 116.201 105.3C121.551 103.65 128.151 106.02 130.431 110.67C132.901 115.7 131.171 121.86 126.361 125.16C121.771 128.31 116.221 127.54 112.071 123.03C111.091 121.96 110.431 120.6 109.531 118.99H109.541Z" fill="#FB605E"/>
</svg>
