<svg width="65" height="65" viewBox="0 0 65 65" fill="none" xmlns="http://www.w3.org/2000/svg">
<path d="M49.9501 5.36984C67.9701 18.7298 69.95 41.7098 54.6 55.9898C45.51 64.4498 28.77 66.9898 18.81 61.4298C4.63004 53.4998 -0.959964 40.8498 1.06004 26.1898C4.34004 2.42984 36.5001 -6.80016 49.9501 5.37984M41.2001 41.5798C45.8301 36.5298 46.5 31.6998 43.4 25.7698C41.02 21.2098 35.71 18.7098 30.38 19.6598C25.42 20.5398 20.78 24.9598 19.97 29.8198C19.05 35.3298 21.3601 39.7298 25.7001 42.7398C30.6301 46.1698 35.7701 45.0898 41.2001 41.5798Z" fill="#03C3FF"/>
<path d="M40.9104 41.8298C35.7704 45.0898 30.6304 46.1697 25.7004 42.7397C21.3604 39.7297 19.0604 35.3197 19.9704 29.8197C20.7804 24.9497 25.4204 20.5297 30.3804 19.6597C35.7104 18.7197 41.0204 21.2097 43.4004 25.7697C46.5004 31.6997 45.8204 36.5297 40.9104 41.8298Z" fill="#0B88EC"/>
</svg>
