<svg width="114" height="109" viewBox="0 0 114 109" fill="none" xmlns="http://www.w3.org/2000/svg">
<path d="M51.3692 108.9C30.0692 108.73 20.9492 92.5499 29.4992 69.8799C19.3092 70.9199 10.6492 68.2999 4.61919 59.7199C0.369191 53.6699 -0.850831 46.9899 0.909169 39.7999C4.62917 24.5699 18.8292 19.1699 38.4792 25.5799C38.9592 14.4099 43.8892 6.11987 54.5192 2.03987C64.0092 -1.60013 72.8092 0.529879 79.7592 7.60988C87.9992 15.9999 88.8092 26.0599 83.5992 37.2999C93.8792 35.9899 102.269 38.7399 108.279 46.6799C112.609 52.4099 113.919 59.1699 112.509 66.1199C110.759 74.7399 105.329 80.6299 97.1292 83.7299C89.1092 86.7599 81.4992 84.9299 73.8392 80.3199C73.8092 96.1499 67.1792 106.05 51.3692 108.89M48.4192 38.9899C41.7592 42.6999 38.2292 48.0499 38.5992 55.9899C38.9692 64.0999 44.6192 71.5199 52.1192 72.9199C61.5892 74.6899 70.8092 69.8999 73.6292 61.6199C76.1092 54.3399 74.6192 47.7399 69.3192 42.2899C63.5692 36.3799 56.6592 35.5499 48.4292 38.9799L48.4192 38.9899Z" fill="#FFD037"/>
<path d="M48.7993 38.8798C56.6593 35.5498 63.5693 36.3799 69.3193 42.2899C74.6193 47.7399 76.1093 54.3398 73.6293 61.6198C70.8093 69.8998 61.5893 74.6799 52.1193 72.9199C44.6193 71.5199 38.9693 64.0898 38.5993 55.9898C38.2393 48.0498 41.7593 42.6998 48.7993 38.8798Z" fill="#FF8532"/>
</svg>
