<svg width="113" height="113" viewBox="0 0 113 113" fill="none" xmlns="http://www.w3.org/2000/svg">
<path d="M26.8792 33.9902C31.0492 30.5802 34.8191 26.3902 39.4991 23.9702C44.0491 21.6202 49.4892 20.2703 54.6292 19.9503C59.9492 19.6203 65.3792 21.0603 71.2092 21.7803C72.8992 14.9403 74.6692 7.74023 76.5192 0.240234C82.5792 1.23023 87.4391 2.14026 91.1591 8.58026C93.9291 13.3703 99.2192 17.9702 103.889 21.1302C109.729 25.0902 111.839 29.3302 112.289 36.0002C105.209 37.7402 98.3191 39.4403 90.7191 41.0303C87.3291 34.6203 82.3792 33.6902 76.0092 33.8602C59.6392 34.3002 43.2491 34.0002 26.8691 34.0002L26.8792 33.9902Z" fill="#1DCC55"/>
<path d="M85.6901 79.6304C73.8801 93.6104 58.97 96.9503 41.47 91.1003C39.69 98.3403 37.9301 105.51 36.1901 112.58C28.4901 113.48 25.8901 111.02 21.5001 105.22C17.8801 100.43 13.05 96.1004 8.47003 92.2404C2.43003 87.1504 1.14008 87.4503 0.330078 77.7203C7.45008 75.8703 14.6101 74.0104 22.3401 72.4004C25.0801 75.6004 25.16 80.1804 30.85 80.0704C49.05 79.7204 67.4801 79.6504 85.6901 79.6304Z" fill="#1DCC55"/>
<path d="M92.5907 48.6201C92.7507 53.4201 92.9507 59.0001 92.4307 64.1501C69.7907 64.5401 47.8307 64.5501 25.8707 64.6401C24.1007 64.6401 22.3307 65.1201 20.5607 65.3801C20.4207 60.2701 20.4507 54.4701 21.0107 49.0701C45.4007 48.7501 68.8907 48.6401 92.5907 48.6201Z" fill="#1DCC55"/>
<path d="M20.5605 65.3804C22.2905 64.7404 24.0606 64.2704 25.8306 64.2604C47.7906 64.1704 70.0105 64.1904 92.4305 64.1504C90.6605 69.2404 88.1606 74.3004 85.6906 79.6304C67.2606 79.9004 49.0505 79.7304 30.8505 80.0704C25.1505 80.1804 24.6906 75.6604 22.3406 72.4004C21.5106 70.0004 21.2505 67.8504 20.5605 65.3804Z" fill="#FFD037"/>
<path d="M92.5898 48.6203C68.8898 49.0403 45.1898 49.0703 21.0098 49.0703C22.6398 44.2103 24.7398 39.3702 27.0898 34.2302C43.7098 33.9402 60.0997 34.2403 76.4697 33.8003C82.8397 33.6303 87.7897 34.5603 90.7297 41.0203C91.5097 43.5203 92.0598 45.8703 92.5898 48.6103V48.6203Z" fill="#FFD037"/>
</svg>
