<svg width="347" height="347" viewBox="0 0 347 347" fill="none" xmlns="http://www.w3.org/2000/svg">
<mask id="mask0_2486_170" style="mask-type:alpha" maskUnits="userSpaceOnUse" x="0" y="0" width="347" height="347">
<path d="M347 173.5C347 269.321 269.322 347 173.5 347C77.6793 347 0 269.321 0 173.5C0 77.6787 77.6793 0 173.5 0C269.322 0 347 77.6787 347 173.5Z" fill="#683D39"/>
</mask>
<g mask="url(#mask0_2486_170)">
<path d="M156.527 196.105C157.063 190.547 156.496 123.275 150.588 110.864C146.938 103.207 139.369 97.7405 130.81 103.648C127.323 106.068 125.218 110.193 121.333 113.821C116.133 118.662 107.307 121.317 98.1974 113.972C84.4124 102.851 96.5374 72.6635 121.678 70.1925C142.859 68.1285 157.76 82.9575 163.115 100.402C170.423 80.3885 183.762 72.4635 196.48 72.9565C210.514 73.4895 224.744 85.1275 220.037 99.2075C217.269 107.501 211.02 108.54 201.308 106.616C193.517 105.043 184.126 103.016 178.646 110.099C173.308 115.523 177.157 169.822 176.31 194.508" fill="#22D2F9"/>
<path d="M115.799 98.0676C115.799 102.71 112.036 106.473 107.394 106.473C102.752 106.473 98.9885 102.71 98.9885 98.0676C98.9885 93.4256 102.752 89.6626 107.394 89.6626C112.036 89.6626 115.799 93.4256 115.799 98.0676Z" fill="#B8F1FB"/>
<path d="M262.496 167.826C238.183 138.507 200.687 128.244 160.341 129.37C125.103 130.354 65.8426 149.336 46.9716 221.039C29.3646 287.941 69.9576 350.099 92.3046 394.509C104.508 418.76 118.591 443.989 119.304 461.092C119.645 469.298 147.974 458.662 175.425 456.901C204.165 455.056 231.879 464.294 231.724 460.024C231.189 445.325 232.103 440.11 244.729 406.659C253.638 383.057 266.21 355.801 279.658 321.57C299.323 271.514 295.723 207.893 262.496 167.826Z" fill="#D68BE6"/>
<path d="M210.172 389.67C207.151 423.44 195.451 446.637 173.788 446.771C152.126 446.905 135.685 424.965 131.564 392.788C127.569 361.598 142.774 333.492 170.596 333.028C198.211 332.567 212.974 358.36 210.172 389.67Z" fill="#EBCEF4"/>
<path d="M22.3585 402.943C18.3655 403.687 13.6515 403.801 10.9035 400.809C7.12048 396.691 9.71348 390.145 12.3215 385.198C25.9425 359.358 35.6035 331.468 46.1855 304.305C47.6735 300.485 49.3765 296.401 52.8685 294.253C57.5265 291.388 63.8985 293.144 67.9185 296.851C71.9365 300.558 74.1475 305.773 76.2435 310.823C83.7555 328.911 90.8825 352.108 77.3455 368.603C64.8175 383.869 41.9105 399.3 22.3585 402.943Z" fill="#D68BE6"/>
<mask id="mask1_2486_170" style="mask-type:alpha" maskUnits="userSpaceOnUse" x="9" y="292" width="76" height="112">
<path d="M22.3585 402.943C18.3655 403.687 13.6515 403.801 10.9035 400.809C7.12048 396.691 9.71348 390.145 12.3215 385.198C25.9425 359.358 35.6035 331.468 46.1855 304.305C47.6735 300.485 49.3765 296.401 52.8685 294.253C57.5265 291.388 63.8985 293.144 67.9185 296.851C71.9365 300.558 74.1475 305.773 76.2435 310.823C83.7555 328.911 90.8825 352.108 77.3455 368.603C64.8175 383.869 41.9105 399.3 22.3585 402.943Z" fill="#D68BE6"/>
</mask>
<g mask="url(#mask1_2486_170)">
<path d="M54.7604 327.116C55.8904 326.651 57.1044 326.688 58.1514 327.124C59.1984 327.56 60.0794 328.396 60.5444 329.528C63.2674 336.146 66.0654 342.243 68.9434 348.162C71.8204 354.081 74.7774 359.821 77.8184 365.725C79.4084 368.812 81.0254 371.952 82.6624 375.18C84.2994 378.408 85.9584 381.724 87.6294 385.164C88.6984 387.365 87.7814 390.017 85.5794 391.087C84.9564 391.389 84.2954 391.532 83.6464 391.532C82.0024 391.532 80.4234 390.615 79.6564 389.037C76.3594 382.251 73.0944 375.912 69.9374 369.783C63.7664 357.802 57.9374 346.487 52.3484 332.901C51.4164 330.637 52.4974 328.048 54.7604 327.116Z" fill="#B873C7"/>
</g>
<path d="M314.296 402.943C318.289 403.687 323.003 403.801 325.751 400.809C329.534 396.691 326.942 390.145 324.334 385.198C310.712 359.358 301.051 331.468 290.469 304.305C288.981 300.485 287.279 296.401 283.787 294.253C279.129 291.388 272.756 293.144 268.736 296.851C264.718 300.558 262.507 305.773 260.41 310.823C252.899 328.911 238.437 349.595 251.974 366.09C264.501 381.356 294.744 399.3 314.296 402.943Z" fill="#D68BE6"/>
<mask id="mask2_2486_170" style="mask-type:alpha" maskUnits="userSpaceOnUse" x="246" y="292" width="82" height="112">
<path d="M314.296 402.943C318.289 403.687 323.003 403.801 325.751 400.809C329.534 396.691 326.942 390.145 324.334 385.198C310.712 359.358 301.051 331.468 290.469 304.305C288.981 300.485 287.279 296.401 283.787 294.253C279.129 291.388 272.756 293.144 268.736 296.851C264.718 300.558 262.507 305.773 260.41 310.823C252.899 328.911 238.437 349.595 251.974 366.09C264.501 381.356 294.744 399.3 314.296 402.943Z" fill="#D68BE6"/>
</mask>
<g mask="url(#mask2_2486_170)">
<path d="M284.572 318.412C286.888 319.201 288.126 321.718 287.336 324.035C282.059 339.519 276.322 353.098 270.246 367.473C268.083 372.592 265.847 377.885 263.611 383.32C262.906 385.031 261.254 386.065 259.511 386.065C258.949 386.065 258.377 385.959 257.825 385.732C255.562 384.8 254.483 382.211 255.413 379.947C257.666 374.474 259.911 369.16 262.082 364.022C268.094 349.796 273.772 336.362 278.947 321.176C279.737 318.86 282.255 317.619 284.572 318.412Z" fill="#B873C7"/>
</g>
<path d="M135.949 227.428C135.949 235.398 129.488 241.859 121.518 241.859C113.548 241.859 107.087 235.398 107.087 227.428C107.087 219.458 113.548 212.997 121.518 212.997C129.488 212.997 135.949 219.458 135.949 227.428Z" fill="#2C2C37"/>
<path d="M225.744 227.428C225.744 235.398 219.283 241.859 211.313 241.859C203.343 241.859 196.882 235.398 196.882 227.428C196.882 219.458 203.343 212.997 211.313 212.997C219.283 212.997 225.744 219.458 225.744 227.428Z" fill="#2C2C37"/>
<path d="M168.177 253.448C153.18 253.448 138.716 252.575 125.104 250.954C118.186 250.131 112.532 255.98 114.67 264.343C120.081 285.507 145.35 302.861 168.177 302.861C191.006 302.861 213.549 287.02 220.855 264.691C223.706 255.98 218.17 250.131 211.252 250.954C197.639 252.575 183.175 253.448 168.177 253.448Z" fill="#AA4682"/>
<mask id="mask3_2486_170" style="mask-type:alpha" maskUnits="userSpaceOnUse" x="114" y="250" width="108" height="53">
<path d="M168.177 253.448C153.18 253.448 138.716 252.575 125.104 250.954C118.186 250.131 112.532 255.98 114.67 264.343C120.081 285.507 145.35 302.861 168.177 302.861C191.006 302.861 213.549 287.02 220.855 264.691C223.706 255.98 218.17 250.131 211.252 250.954C197.639 252.575 183.175 253.448 168.177 253.448Z" fill="#AA4682"/>
</mask>
<g mask="url(#mask3_2486_170)">
<path d="M208.555 298.332C203.117 291.106 185.722 278.51 168.695 278.51C151.728 278.51 134.526 291.894 129.042 299.08C130.514 313.11 144.585 329.198 168.693 328.076C186.165 327.263 209.046 314.046 208.555 298.332Z" fill="#FFABB7"/>
</g>
</g>
</svg>
