<svg width="133" height="127" viewBox="0 0 133 127" fill="none" xmlns="http://www.w3.org/2000/svg">
<path d="M21.5691 107.01C20.9091 107.04 20.2291 107.01 19.5791 107.12C12.1291 108.32 5.6991 106.27 2.1391 99.5402C-1.5709 92.5202 0.0190969 85.7102 6.0391 79.5302C6.8191 79.0102 7.15911 78.9502 7.43911 78.7902C35.5391 62.8702 63.6591 46.9703 91.7291 30.9803C98.2891 27.2403 104.669 23.1902 111.129 19.2802C116.559 19.0002 122.059 18.3002 126.709 22.1802C134.639 28.8102 134.929 38.0102 127.019 46.7802C107.819 57.8602 89.0891 68.5202 70.3691 79.1902C54.0991 88.4602 37.8391 97.7402 21.5691 107.02V107.01Z" fill="#FFD037"/>
<path d="M21.7598 107.3C37.8398 97.7401 54.0998 88.4501 70.3698 79.1801C89.0898 68.5101 107.82 57.8501 126.85 47.1001C134.64 75.4601 122.94 103.61 96.8098 118.38C73.0998 131.77 41.8398 127.96 21.7698 107.3H21.7598Z" fill="#1DCC55"/>
<path d="M110.929 18.9502C104.669 23.1802 98.2886 27.2401 91.7286 30.9701C63.6586 46.9601 35.5386 62.8602 7.4386 78.7802C7.1586 78.9402 6.8186 79.0101 6.1586 79.2101C-0.561396 55.5401 7.83859 29.2202 26.4286 14.7202C47.7786 -1.92985 74.1986 -4.46985 96.8186 8.34015C101.799 11.1601 106.109 15.1602 110.929 18.9402V18.9502Z" fill="#1DCC55"/>
</svg>
