<svg width="56" height="57" viewBox="0 0 56 57" fill="none" xmlns="http://www.w3.org/2000/svg">
<path d="M31.8992 0.970072C51.7492 4.65007 62.1391 27.0901 51.8491 43.2401C45.5691 53.1101 29.9091 58.9601 20.1191 55.1001C5.02914 49.1501 -1.07088 37.5601 0.909116 22.6701C2.83912 8.10008 21.6492 -1.09993 31.8992 0.970072ZM38.7092 26.8601C38.3392 25.7601 38.1491 24.5601 37.5691 23.5901C35.1491 19.5501 31.6591 17.4601 26.7991 17.9201C22.4891 18.3301 19.8091 20.8001 18.2891 24.6101C16.5891 28.8501 17.2791 32.7001 20.6091 36.0201C23.7691 39.1701 27.5292 39.9801 31.5792 38.5201C36.5392 36.7401 38.5892 32.7501 38.7092 26.8601Z" fill="#D68BE6"/>
<path d="M38.7385 27.2699C38.5885 32.7599 36.5386 36.7399 31.5786 38.5299C27.5286 39.9899 23.7685 39.1799 20.6085 36.0299C17.2785 32.7099 16.5885 28.8599 18.2885 24.6199C19.8085 20.8199 22.4885 18.3399 26.7985 17.9299C31.6585 17.4699 35.1486 19.5599 37.5686 23.5999C38.1486 24.5699 38.3385 25.7699 38.7385 27.2699Z" fill="#FFD037"/>
</svg>
