<svg width="227" height="225" viewBox="0 0 227 225" fill="none" xmlns="http://www.w3.org/2000/svg">
<path d="M181.771 142.76C196.551 146.38 211.331 150 226.481 153.72C225.421 159.03 224.681 163.91 223.461 168.66C221.911 174.7 218.041 178.94 211.991 180.63C207.031 182.01 204.071 184.81 202.671 189.82C201.051 195.62 197.191 199.7 191.291 201.27C186.461 202.56 183.631 205.34 182.301 210.17C180.281 217.54 174.781 221.23 167.651 222.65C151.971 225.79 155.781 227.31 151.861 212.75C149.041 202.27 146.751 191.65 144.111 180.61C109.801 192.7 80.1814 187.04 56.4414 158.93C93.2014 158.37 129.621 158.17 166.041 157.96C167.041 157.96 168.121 158.21 169.021 157.9C170.601 157.36 172.611 156.87 173.481 155.66C176.461 151.52 179.021 147.08 181.751 142.76H181.771Z" fill="#D68BE6"/>
<path d="M45.4508 83.3C32.4708 79.99 19.4808 76.69 6.50078 73.37C4.76078 72.93 3.04078 72.42 0.550781 71.74C2.08078 65.47 2.63077 58.94 5.37077 53.53C7.22077 49.86 11.8108 47 15.8108 45.16C20.0208 43.22 23.2608 41.3 24.4208 36.53C26.0108 29.94 30.5408 25.98 36.9208 24.31C41.0908 23.21 43.6508 20.65 44.6108 16.72C46.6608 8.32002 52.7008 4.59003 60.3708 2.73003C64.1908 1.81003 68.1008 1.29002 72.3308 0.52002C75.9608 15.46 79.5408 30.19 83.1908 45.18C117.381 33.15 147.171 38.65 171.071 66.98C137.681 67.36 104.621 67.42 71.5708 67.46C59.6308 67.4734 50.9241 72.7534 45.4508 83.3Z" fill="#D68BE6"/>
<path d="M185.78 97.0599C188.84 107.01 188.39 117.04 185.78 127.41C137.22 127.78 89.3703 127.83 41.5203 127.89C38.9003 117.79 39.2903 107.65 41.8403 97.2299C90.2703 96.9999 138.03 97.0299 185.79 97.0599H185.78Z" fill="#D68BE6"/>
<path d="M41.6917 127.83C89.4817 127.38 137.612 127.4 185.952 127.35C185.092 132.13 183.352 137.55 181.942 142.7C179.162 147.4 176.592 151.83 173.612 155.97C172.742 157.18 170.732 157.66 169.152 158.21C168.262 158.52 167.172 158.26 166.172 158.27C129.752 158.47 93.3317 158.68 56.4517 158.93C48.3717 150.32 43.8716 139.51 41.6816 127.84L41.6917 127.83Z" fill="#FFD037"/>
<path d="M185.781 97.0601C137.961 97.4501 90.2012 97.4201 41.9512 97.3301C42.7012 92.8201 43.9512 88.3601 45.3212 83.5001C50.8745 72.6734 59.6212 67.2601 71.5612 67.2601C104.621 67.2201 137.681 67.1701 171.191 67.0801C178.941 75.6701 183.521 85.6201 185.781 97.0601Z" fill="#FFD037"/>
</svg>
