<svg width="131" height="116" viewBox="0 0 131 116" fill="none" xmlns="http://www.w3.org/2000/svg">
<path d="M100.46 100.41C95.2104 105 90.0404 109.69 84.6404 114.1C83.4104 115.11 81.2304 115.85 79.7404 115.52C57.5004 110.6 36.1904 103.41 18.6104 88.1502C8.11036 79.0302 1.12036 68.0002 0.100365 53.5702C-1.25964 34.4702 12.5104 17.7502 32.0604 15.0702C42.1304 13.6902 51.0504 16.6402 59.1904 22.2902C62.2104 18.6202 64.8404 14.8502 68.0404 11.6502C78.1204 1.56022 90.5004 -1.24978 103.88 2.51022C117.98 6.48022 126.48 16.3802 129.61 30.7402C131.76 40.5902 130.72 50.2302 127.27 60.3702C123.46 67.5802 120.37 74.4602 116.19 80.5902C111.46 87.5502 105.75 93.8402 100.47 100.42" fill="#FB605E"/>
<path d="M22.1001 61.2801C21.4801 62.1901 19.9501 61.7701 19.5401 60.9801C17.5101 57.1501 13.8901 48.0501 21.5101 39.5801C28.4301 31.8901 35.0601 31.6901 37.9201 32.3301C38.8801 32.5501 39.3501 33.6201 38.8401 34.4601L34.9601 38.9501C30.4301 44.1901 26.8201 50.1701 24.2901 56.6201L22.1001 61.2701V61.2801Z" fill="white"/>
</svg>
