<svg width="105" height="105" viewBox="0 0 105 105" fill="none" xmlns="http://www.w3.org/2000/svg">
<path d="M51.9191 104.5C80.5275 104.5 103.719 81.3082 103.719 52.6999C103.719 24.0915 80.5275 0.899902 51.9191 0.899902C23.3108 0.899902 0.119141 24.0915 0.119141 52.6999C0.119141 81.3082 23.3108 104.5 51.9191 104.5Z" fill="#FFDD33"/>
<path d="M84.4797 92.9797C70.5197 90.6297 56.5497 86.9298 44.2297 80.4398C43.2097 79.8998 41.8897 79.4897 39.9297 78.4897C62.0497 64.0397 81.8597 46.1998 94.0297 22.5298C109.57 41.3298 107.35 72.7898 88.1097 89.7498C87.3597 90.4098 85.5797 92.2197 84.4797 92.9797Z" fill="#FB605E"/>
<path d="M39.9191 78.4901C25.0791 70.9701 10.9891 60.0201 0.369141 47.5701C3.94914 4.26007 45.4492 1.29004 45.4492 1.29004C45.4492 1.29004 40.1691 4.46004 39.9191 78.48V78.4901Z" fill="#FB605E"/>
<path d="M15.1484 89.1797C23.0084 85.6897 31.9784 81.6797 39.9284 78.4897C42.0484 86.3897 43.1985 95.8298 45.4585 104.09C33.6885 103.49 23.8084 97.5497 15.1484 89.1697V89.1797Z" fill="#FB605E"/>
</svg>
