<svg width="16" height="16" viewBox="0 0 16 16" fill="none" xmlns="http://www.w3.org/2000/svg">
<path d="M2.74545 0.471045C2.11739 -0.157015 1.0991 -0.157015 0.471045 0.471045C-0.157015 1.0991 -0.157015 2.11739 0.471045 2.74545L5.72559 8L0.471045 13.2546C-0.157015 13.8826 -0.157015 14.9009 0.471045 15.529C1.0991 16.157 2.11739 16.157 2.74545 15.529L8 10.2744L13.2546 15.529C13.8826 16.157 14.9009 16.157 15.529 15.529C16.157 14.9009 16.157 13.8826 15.529 13.2546L10.2744 8L15.529 2.74545C16.157 2.11739 16.157 1.09911 15.529 0.471045C14.9009 -0.157014 13.8826 -0.157014 13.2546 0.471045L8 5.72559L2.74545 0.471045Z" fill="black"/>
</svg>
