<svg width="24" height="23" viewBox="0 0 24 23" fill="none" xmlns="http://www.w3.org/2000/svg">
<path d="M10.3122 1.56296C10.8977 0.337736 12.6443 0.337737 13.2298 1.56296L15.4667 6.2438C15.7024 6.73689 16.1719 7.07747 16.7143 7.14887L21.864 7.82668C23.2119 8.0041 23.7516 9.66277 22.7656 10.5974L18.9984 14.1681C18.6016 14.5443 18.4223 15.0954 18.5219 15.6326L19.4676 20.7323C19.7152 22.0672 18.3021 23.0923 17.1072 22.4447L12.542 19.9707C12.0611 19.7101 11.4808 19.7101 10.9999 19.9707L6.43481 22.4447C5.23987 23.0923 3.82682 22.0672 4.07436 20.7323L5.02009 15.6326C5.11972 15.0954 4.94039 14.5443 4.54355 14.1681L0.776417 10.5974C-0.209645 9.66276 0.330095 8.0041 1.67803 7.82668L6.82765 7.14887C7.37013 7.07747 7.8396 6.73689 8.07524 6.2438L10.3122 1.56296Z" fill="#FFC82A"/>
</svg>
