<svg width="46" height="46" viewBox="0 0 46 46" fill="none" xmlns="http://www.w3.org/2000/svg">
<mask id="mask0_235_2941" style="mask-type:luminance" maskUnits="userSpaceOnUse" x="0" y="0" width="46" height="46">
<path d="M46 0H0V46H46V0Z" fill="white"/>
</mask>
<g mask="url(#mask0_235_2941)">
<path d="M25.9403 41.5046H20.0596C19.3378 41.5046 18.7528 40.9195 18.7528 40.1978V35.2156C18.7528 34.1329 19.6305 33.2554 20.713 33.2554H25.2869C26.3695 33.2554 27.2471 34.1329 27.2471 35.2156V40.1978C27.2471 40.9195 26.662 41.5046 25.9403 41.5046Z" fill="#03C65A"/>
<mask id="mask1_235_2941" style="mask-type:alpha" maskUnits="userSpaceOnUse" x="11" y="12" width="24" height="25">
<path d="M32.4744 36.604H23H13.5255C12.9842 36.604 12.4942 36.3845 12.1395 36.0298C11.7847 35.6751 11.5653 35.185 11.5653 34.6437V29.4165V24.1892C11.5653 21.0316 12.8452 18.173 14.9144 16.1038C16.9837 14.0345 19.8424 12.7546 23 12.7546C29.3151 12.7546 34.4346 17.874 34.4346 24.1892V34.6437C34.4346 35.7263 33.557 36.604 32.4744 36.604Z" fill="#FF0000"/>
</mask>
<g mask="url(#mask1_235_2941)">
<path d="M34.4346 30.0068H11.5653V19.679H34.4346V30.0068Z" fill="#FFD037"/>
<path d="M34.4346 36.6041H11.5653V28.7632H34.4346V36.6041Z" fill="#FF615F"/>
<path d="M34.4346 20.9221H11.5653V12.7546H34.4346V20.9221Z" fill="#0094FF"/>
</g>
</g>
</svg>
