<svg width="46" height="46" viewBox="0 0 46 46" fill="none" xmlns="http://www.w3.org/2000/svg">
<mask id="mask0_235_2987" style="mask-type:luminance" maskUnits="userSpaceOnUse" x="0" y="0" width="46" height="46">
<path d="M46 0H0V46H46V0Z" fill="white"/>
</mask>
<g mask="url(#mask0_235_2987)">
<path d="M19.8646 16.5191C19.8646 19.1107 17.8605 21.2115 15.3883 21.2115C12.9161 21.2115 10.912 19.1107 10.912 16.5191C10.912 13.9275 12.9161 11.8267 15.3883 11.8267C17.8605 11.8267 19.8646 13.9275 19.8646 16.5191Z" fill="#0094FF"/>
<path d="M26.1354 16.5191C26.1354 19.1107 28.1394 21.2115 30.6116 21.2115C33.0839 21.2115 35.088 19.1107 35.088 16.5191C35.088 13.9275 33.0839 11.8267 30.6116 11.8267C28.1394 11.8267 26.1354 13.9275 26.1354 16.5191Z" fill="#FF615F"/>
<path d="M37.375 27.1817C37.375 34.399 30.9391 40.2499 23 40.2499C15.0609 40.2499 8.625 34.399 8.625 27.1817C8.625 19.9644 15.0609 14.1135 23 14.1135C30.9391 14.1135 37.375 19.9644 37.375 27.1817Z" fill="#FFD037"/>
<path d="M18.4591 28.2288C19.7677 29.2536 21.3379 29.7954 23 29.7954C24.6621 29.7954 26.2323 29.2536 27.5409 28.2288C28.1093 27.7837 28.9306 27.8837 29.3755 28.4519C29.8206 29.0201 29.7207 29.8414 29.1525 30.2864C27.3795 31.6751 25.252 32.4091 23 32.4091C20.748 32.4091 18.6205 31.6751 16.8475 30.2864C16.2793 29.8414 16.1795 29.0201 16.6245 28.4519C17.0695 27.8837 17.8909 27.7836 18.4591 28.2288Z" fill="#FF8533"/>
</g>
</svg>
