<svg width="46" height="46" viewBox="0 0 46 46" fill="none" xmlns="http://www.w3.org/2000/svg">
<mask id="mask0_235_2663" style="mask-type:luminance" maskUnits="userSpaceOnUse" x="0" y="0" width="46" height="46">
<path d="M46 0H0V46H46V0Z" fill="white"/>
</mask>
<g mask="url(#mask0_235_2663)">
<mask id="mask1_235_2663" style="mask-type:alpha" maskUnits="userSpaceOnUse" x="7" y="14" width="32" height="26">
<path d="M16.0964 14.6338C10.6971 14.6911 7.01021 19.3118 7.7206 24.6643C8.67845 31.8818 16.5019 36.8855 20.5622 39.0229C22.0816 39.8226 23.8949 39.8226 25.4143 39.0229C29.4746 36.8853 37.2985 31.8815 38.2559 24.6638C38.966 19.3113 35.279 14.6909 29.8797 14.6338H16.0964Z" fill="#00FF67"/>
</mask>
<g mask="url(#mask1_235_2663)">
<path d="M29.9666 14.6351C27.1239 14.5775 24.5889 15.9054 22.9898 17.9892C21.3907 15.9054 18.8558 14.5775 16.0131 14.6351C10.5778 14.7453 6.95046 19.4505 7.74521 24.8286C9.17916 34.5311 22.9898 40.1863 22.9898 40.1863C22.9898 40.1863 36.8005 34.5311 38.2343 24.8286C39.0292 19.4505 35.4019 14.7453 29.9666 14.6351Z" fill="#FFD037"/>
</g>
<mask id="mask2_235_2663" style="mask-type:alpha" maskUnits="userSpaceOnUse" x="7" y="14" width="32" height="26">
<path d="M16.0964 14.6338C10.6971 14.6911 7.01021 19.3118 7.7206 24.6643C8.67845 31.8818 16.5019 36.8855 20.5622 39.0229C22.0816 39.8226 23.8949 39.8226 25.4143 39.0229C29.4746 36.8853 37.2985 31.8815 38.2559 24.6638C38.966 19.3113 35.279 14.6909 29.8797 14.6338H16.0964Z" fill="#00FF67"/>
</mask>
<g mask="url(#mask2_235_2663)">
<path d="M22.9884 17.9892C21.3892 15.9055 18.8544 14.5775 16.0117 14.6351C10.5762 14.7453 6.949 19.4506 7.74375 24.8287C9.17759 34.5313 22.9884 40.1863 22.9884 40.1863V17.9892Z" fill="#FF625F"/>
</g>
<mask id="mask3_235_2663" style="mask-type:alpha" maskUnits="userSpaceOnUse" x="7" y="14" width="32" height="26">
<path d="M16.0964 14.6338C10.6971 14.6911 7.01021 19.3118 7.7206 24.6643C8.67845 31.8818 16.5019 36.8855 20.5622 39.0229C22.0816 39.8226 23.8949 39.8226 25.4143 39.0229C29.4746 36.8853 37.2985 31.8815 38.2559 24.6638C38.966 19.3113 35.279 14.6909 29.8797 14.6338H16.0964Z" fill="#00FF67"/>
</mask>
<g mask="url(#mask3_235_2663)">
<path d="M22.9884 17.9892C21.3892 15.9055 18.8544 14.5775 16.0117 14.6351C10.5762 14.7453 6.949 19.4506 7.74375 24.8287C9.17759 34.5313 22.9884 40.1863 22.9884 40.1863V17.9892Z" fill="#FF8533"/>
</g>
<mask id="mask4_235_2663" style="mask-type:alpha" maskUnits="userSpaceOnUse" x="7" y="14" width="32" height="26">
<path d="M16.0964 14.6338C10.6971 14.6911 7.01021 19.3118 7.7206 24.6643C8.67845 31.8818 16.5019 36.8855 20.5622 39.0229C22.0816 39.8226 23.8949 39.8226 25.4143 39.0229C29.4746 36.8853 37.2985 31.8815 38.2559 24.6638C38.966 19.3113 35.279 14.6909 29.8797 14.6338H16.0964Z" fill="#00FF67"/>
</mask>
<g mask="url(#mask4_235_2663)">
<path d="M22.9884 17.9892C21.3892 15.9055 18.8544 14.5775 16.0117 14.6351C10.5762 14.7453 6.949 19.4506 7.74375 24.8287C9.17759 34.5313 22.9884 40.1863 22.9884 40.1863V17.9892Z" fill="#FFAA3B"/>
</g>
<mask id="mask5_235_2663" style="mask-type:alpha" maskUnits="userSpaceOnUse" x="7" y="14" width="32" height="26">
<path d="M16.0964 14.6338C10.6971 14.6911 7.01021 19.3118 7.7206 24.6643C8.67845 31.8818 16.5019 36.8855 20.5622 39.0229C22.0816 39.8226 23.8949 39.8226 25.4143 39.0229C29.4746 36.8853 37.2985 31.8815 38.2559 24.6638C38.966 19.3113 35.279 14.6909 29.8797 14.6338H16.0964Z" fill="#00FF67"/>
</mask>
<g mask="url(#mask5_235_2663)">
<path d="M22.9884 17.9892C21.3892 15.9055 18.8544 14.5775 16.0117 14.6351C10.5762 14.7453 6.949 19.4506 7.74375 24.8287C9.17759 34.5313 22.9884 40.1863 22.9884 40.1863V17.9892Z" fill="#FFD037"/>
</g>
<mask id="mask6_235_2663" style="mask-type:alpha" maskUnits="userSpaceOnUse" x="7" y="14" width="32" height="26">
<path d="M16.0964 14.6338C10.6971 14.6911 7.01021 19.3118 7.7206 24.6643C8.67845 31.8818 16.5019 36.8855 20.5622 39.0229C22.0816 39.8226 23.8949 39.8226 25.4143 39.0229C29.4746 36.8853 37.2985 31.8815 38.2559 24.6638C38.966 19.3113 35.279 14.6909 29.8797 14.6338H16.0964Z" fill="#00FF67"/>
</mask>
<g mask="url(#mask6_235_2663)">
<path d="M22.9884 17.9892C21.3892 15.9055 18.8544 14.5775 16.0117 14.6351C10.5762 14.7453 6.949 19.4506 7.74375 24.8287C9.17759 34.5313 22.9884 40.1863 22.9884 40.1863V17.9892Z" fill="#FFAA3B"/>
</g>
<mask id="mask7_235_2663" style="mask-type:alpha" maskUnits="userSpaceOnUse" x="7" y="14" width="32" height="26">
<path d="M16.0964 14.6338C10.6971 14.6911 7.01021 19.3118 7.7206 24.6643C8.67845 31.8818 16.5019 36.8855 20.5622 39.0229C22.0816 39.8226 23.8949 39.8226 25.4143 39.0229C29.4746 36.8853 37.2985 31.8815 38.2559 24.6638C38.966 19.3113 35.279 14.6909 29.8797 14.6338H16.0964Z" fill="#00FF67"/>
</mask>
<g mask="url(#mask7_235_2663)">
<path d="M22.9884 17.9892C21.3892 15.9055 18.8544 14.5775 16.0117 14.6351C10.5762 14.7453 6.949 19.4506 7.74375 24.8287C9.17759 34.5313 22.9884 40.1863 22.9884 40.1863V17.9892Z" fill="#FF615F"/>
</g>
</g>
</svg>
