<svg width="46" height="46" viewBox="0 0 46 46" fill="none" xmlns="http://www.w3.org/2000/svg">
<g clip-path="url(#clip0_278_3405)">
<mask id="mask0_278_3405" style="mask-type:luminance" maskUnits="userSpaceOnUse" x="0" y="0" width="46" height="46">
<path d="M46 0H0V46H46V0Z" fill="white"/>
</mask>
<g mask="url(#mask0_278_3405)">
<path d="M18.3973 19.4348L21.0495 18.1257L21.4748 15.1987C21.5317 14.8068 22.0136 14.6503 22.29 14.9338L24.3546 17.0521L27.2699 16.552C27.6602 16.4851 27.9578 16.8948 27.7736 17.2455L26.397 19.8634L27.7736 22.4813C27.9578 22.832 27.6602 23.2417 27.2699 23.1749L24.3546 22.6747L22.29 24.793C22.0136 25.0765 21.5317 24.92 21.4748 24.5281L21.0495 21.6011L18.3973 20.292C18.0421 20.1167 18.0421 19.6101 18.3973 19.4348Z" fill="#FFD037"/>
<path d="M26.8643 11.6631C26.8643 13.4772 25.3937 14.9478 23.5796 14.9478C21.7656 14.9478 20.2949 13.4772 20.2949 11.6631C20.2949 9.84909 21.7656 8.37842 23.5796 8.37842C25.3937 8.37842 26.8643 9.84909 26.8643 11.6631Z" fill="#FF615F"/>
<path d="M27.9568 19.4019L25.1002 17.9923L24.6422 14.8401C24.581 14.4179 24.0623 14.2495 23.7646 14.5548L21.5411 16.8359L18.4017 16.2974C17.9815 16.2253 17.6606 16.6666 17.859 17.044L19.3416 19.8635L17.859 22.6829C17.6606 23.0605 17.9815 23.5018 18.4017 23.4297L21.5411 22.8911L23.7646 25.1721C24.0623 25.4775 24.581 25.309 24.6422 24.887L25.1002 21.7346L27.9568 20.325C28.3393 20.1362 28.3393 19.5908 27.9568 19.4019Z" fill="#FFD037"/>
<path d="M31.1847 13.9502C31.1847 15.7643 29.714 17.235 27.8999 17.235C26.0859 17.235 24.6152 15.7643 24.6152 13.9502C24.6152 12.1362 26.0859 10.6655 27.8999 10.6655C29.714 10.6655 31.1847 12.1362 31.1847 13.9502Z" fill="#00C3FF"/>
<path d="M21.3839 13.2969C21.3839 15.111 19.9132 16.5816 18.0992 16.5816C16.2851 16.5816 14.8145 15.111 14.8145 13.2969C14.8145 11.4829 16.2851 10.0122 18.0992 10.0122C19.9132 10.0122 21.3839 11.4829 21.3839 13.2969Z" fill="#03C65A"/>
<mask id="mask1_278_3405" style="mask-type:alpha" maskUnits="userSpaceOnUse" x="12" y="13" width="22" height="22">
<path d="M23.0008 34.3563C16.9274 34.3563 12.0039 29.4329 12.0039 23.3594V15.5969C12.0039 14.5251 12.8728 13.6562 13.9445 13.6562H32.057C33.1288 13.6562 33.9977 14.5251 33.9977 15.5969V23.3594C33.9977 29.4329 29.0743 34.3563 23.0008 34.3563Z" fill="#FFD037"/>
</mask>
<g mask="url(#mask1_278_3405)">
<path d="M16.4661 29.2333H13.199C9.95123 29.2333 7.31836 26.6004 7.31836 23.3526V20.4124C7.31836 19.3298 8.19602 18.4521 9.27859 18.4521H16.4661V29.2333Z" fill="#FF615F"/>
</g>
<path d="M28.5545 40.668H17.4466C16.364 40.668 15.4863 39.7904 15.4863 38.7078C15.4863 37.6252 16.364 36.7476 17.4466 36.7476H28.5545C29.6371 36.7476 30.5147 37.6252 30.5147 38.7078C30.5147 39.7904 29.6371 40.668 28.5545 40.668Z" fill="#FFD037"/>
<path d="M25.9412 40.1663H20.0605V31.1699H25.9412V40.1663Z" fill="#FFD037"/>
<path d="M28.6445 29.2333H31.9116C35.1594 29.2333 37.7923 26.6004 37.7923 23.3526V20.4124C37.7923 19.3298 36.9146 18.4521 35.832 18.4521H28.6445V29.2333Z" fill="#03C65A"/>
<path d="M17.3027 29.2333H14.0357C10.7879 29.2333 8.15501 26.6004 8.15501 23.3526V20.4124C8.15501 19.3298 9.03267 18.4521 10.1152 18.4521H17.3027V29.2333Z" fill="#FF6260"/>
<path d="M23.0005 34.4608C16.8658 34.4608 11.8926 29.4877 11.8926 23.3529V15.512C11.8926 14.4294 12.7702 13.5518 13.8528 13.5518H32.1483C33.2308 13.5518 34.1085 14.4294 34.1085 15.512V23.3529C34.1085 29.4877 29.1354 34.4608 23.0005 34.4608Z" fill="#FFD037"/>
<mask id="mask2_278_3405" style="mask-type:alpha" maskUnits="userSpaceOnUse" x="11" y="13" width="24" height="22">
<path d="M23.0005 34.4608C16.8658 34.4608 11.8926 29.4877 11.8926 23.3529V15.512C11.8926 14.4294 12.7702 13.5518 13.8528 13.5518H32.1483C33.2308 13.5518 34.1085 14.4294 34.1085 15.512V23.3529C34.1085 29.4877 29.1354 34.4608 23.0005 34.4608Z" fill="#FFD037"/>
</mask>
<g mask="url(#mask2_278_3405)">
<path d="M23.4624 18.5685L24.8738 21.4282L28.0297 21.8868C28.4522 21.9483 28.6212 22.4676 28.3154 22.7655L26.0315 24.9916L26.5706 28.1349C26.6429 28.5558 26.2012 28.8767 25.8232 28.678L23.0003 27.194L20.1775 28.678C19.7995 28.8767 19.3578 28.5558 19.43 28.1349L19.9691 24.9916L17.6854 22.7655C17.3796 22.4676 17.5485 21.9483 17.971 21.8868L21.127 21.4282L22.5383 18.5685C22.7273 18.1855 23.2734 18.1855 23.4624 18.5685Z" fill="#FF8533"/>
</g>
</g>
</g>
<defs>
<clipPath id="clip0_278_3405">
<rect width="46" height="46" fill="white"/>
</clipPath>
</defs>
</svg>
